<svg xmlns="http://www.w3.org/2000/svg" width="15" height="8" viewBox="0 0 15 8" fill="none">
    <path d="M7.49541 5.91155L13.3016 0.278489C13.4991 0.0868887 13.7329 -0.00584604 14.0031 0.000285185C14.2732 0.00641641 14.5068 0.105538 14.7038 0.29765C14.9007 0.489761 14.9995 0.716617 15 0.978215C15.0005 1.23981 14.9018 1.46641 14.7038 1.65802L8.62109 7.54016C8.4631 7.69344 8.28536 7.8084 8.08787 7.88504C7.89038 7.96168 7.6929 8 7.49541 8C7.29792 8 7.10043 7.96168 6.90294 7.88504C6.70545 7.8084 6.52771 7.69344 6.36972 7.54016L0.287049 1.63885C0.0895593 1.44725 -0.00602623 1.22372 0.000293419 0.968252C0.00661307 0.712784 0.108781 0.48925 0.306797 0.29765C0.504813 0.106049 0.738641 0.0102486 1.00828 0.0102486C1.27792 0.0102486 1.51148 0.106049 1.70897 0.29765L7.49541 5.91155Z" fill="#FFF"/>
</svg>