<svg xmlns="http://www.w3.org/2000/svg" width="30" height="40" viewBox="0 0 25 25" fill="none">
    <path fill-rule="evenodd" clip-rule="evenodd" d="M1.49683 9.08984C1.49683 6.46649 3.62347 4.33984 6.24683 4.33984H18.2468C20.8702 4.33984 22.9968 6.46649 22.9968 9.08984V15.0898C22.9968 17.7132 20.8702 19.8398 18.2468 19.8398H6.24683C3.62347 19.8398 1.49683 17.7132 1.49683 15.0898V9.08984ZM3.08379 8.33984H21.4099C21.0713 6.90649 19.7836 5.83984 18.2468 5.83984H6.24683C4.71004 5.83984 3.42237 6.90649 3.08379 8.33984ZM21.4968 9.83984H2.99683V15.0898C2.99683 16.8848 4.4519 18.3398 6.24683 18.3398H18.2468C20.0418 18.3398 21.4968 16.8848 21.4968 15.0898V9.83984ZM13.4968 15.0898C13.4968 14.6756 13.8326 14.3398 14.2468 14.3398H18.2468C18.661 14.3398 18.9968 14.6756 18.9968 15.0898C18.9968 15.5041 18.661 15.8398 18.2468 15.8398H14.2468C13.8326 15.8398 13.4968 15.5041 13.4968 15.0898Z" fill="white"/>
</svg>