<svg xmlns="http://www.w3.org/2000/svg" width="22" height="19" viewBox="0 0 22 19" fill="none">
    <path d="M3.66211 13.4271V15.211C3.66211 15.3142 3.7104 15.4131 3.79635 15.486C3.88231 15.559 3.99889 15.6 4.12044 15.6H6.22694C6.34827 15.6 6.46463 15.5591 6.55053 15.4864L15.2112 8.136L12.4612 5.80205L3.79686 13.1524C3.71084 13.2252 3.66238 13.324 3.66211 13.4271ZM13.596 4.83813L16.346 7.17208L17.6844 6.03622C17.8562 5.89033 17.9527 5.69248 17.9527 5.48619C17.9527 5.27989 17.8562 5.08205 17.6844 4.93615L16.2314 3.70227C16.0595 3.55642 15.8264 3.47449 15.5834 3.47449C15.3403 3.47449 15.1072 3.55642 14.9353 3.70227L13.596 4.83813Z" fill="white"/>
</svg>